name C:\Users\u0101727\Documents\MyRepositories\paper-ad\predictivesimulations_2d/Results/PredSim_2D/IK_c7.mot
datacolumns 11
datarows 30
range 0.63317255 0.91138473
endheader
time	pelvis_tilt	pelvis_tx	pelvis_ty	hip_flexion_l	hip_flexion_r	knee_angle_l	knee_angle_r	ankle_angle_l	ankle_angle_r	lumbar_extension	
          0.63317255	        -15.04992648	          0.85494552	          0.89990131	         25.69095990	         11.36783530	        -10.65603113	        -40.88730508	          8.50076557	         -0.31077167	         10.30086926	
          0.64276607	        -15.06700033	          0.86691800	          0.90133851	         24.77210590	         12.64074808	        -10.40893609	        -41.78398761	          8.60346081	          0.66549671	         10.26251093	
          0.65235960	        -15.08159522	          0.87883465	          0.90253209	         23.83796981	         13.94611544	        -10.13696987	        -42.57275953	          8.74692043	          1.72172849	         10.22016782	
          0.66195312	        -15.09369442	          0.89070310	          0.90348532	         22.89299800	         15.27891394	         -9.84798233	        -43.24549317	          8.92527527	          2.84026261	         10.17415819	
          0.67154664	        -15.10342172	          0.90253064	          0.90420880	         21.94108717	         16.63318621	         -9.54901277	        -43.79464040	          9.13205703	          4.00329295	         10.12495699	
          0.68114017	        -15.11094073	          0.91432355	          0.90471948	         20.98639783	         18.00307695	         -9.24762796	        -44.21252163	          9.35960008	          5.19296782	         10.07299741	
          0.69073369	        -15.11639313	          0.92608731	          0.90503816	         20.03350562	         19.38313431	         -8.95165706	        -44.49128060	          9.59985256	          6.39146077	         10.01861710	
          0.70032721	        -15.11992489	          0.93782796	          0.90518622	         19.08719655	         20.76683935	         -8.66945381	        -44.62401943	          9.84485891	          7.58096673	          9.96219899	
          0.70992074	        -15.12175583	          0.94955254	          0.90518394	         18.15071319	         22.14727133	         -8.40666872	        -44.60512119	         10.08726972	          8.74381296	          9.90427602	
          0.71951426	        -15.12220240	          0.96126935	          0.90504945	         17.22488821	         23.51757201	         -8.16460020	        -44.43046841	         10.32044245	          9.86263858	          9.84558484	
          0.72910778	        -15.12154727	          0.97298718	          0.90479826	         16.31112671	         24.86981502	         -7.94605522	        -44.09810291	         10.53759947	         10.92070790	          9.78686424	
          0.73870131	        -15.12003487	          0.98471424	          0.90444349	         15.41157715	         26.19605476	         -7.75463996	        -43.60708623	         10.73267423	         11.90257963	          9.72873243	
          0.74829483	        -15.11790699	          0.99645957	          0.90399584	         14.52780365	         27.48749011	         -7.59336997	        -42.96042732	         10.90104550	         12.79485259	          9.67192415	
          0.75788836	        -15.11542255	          1.00823162	          0.90346441	         13.66074424	         28.73610992	         -7.46428653	        -42.16264982	         11.03976123	         13.58729019	          9.61713110	
          0.76748188	        -15.11284489	          1.02003701	          0.90285727	         12.81128038	         29.93570674	         -7.36849724	        -41.21812117	         11.14767671	         14.27380431	          9.56483889	
          0.77707540	        -15.11041237	          1.03188205	          0.90218094	         11.98011672	         31.08055508	         -7.30767884	        -40.13358199	         11.22551010	         14.85279491	          9.51549065	
          0.78666893	        -15.10834614	          1.04377109	          0.90144077	         11.16757162	         32.16772601	         -7.28273169	        -38.91449963	         11.27607938	         15.32709173	          9.46927414	
          0.79626245	        -15.10685757	          1.05570774	          0.90064053	         10.37353404	         33.19586278	         -7.29405284	        -37.56584691	         11.30384598	         15.70297393	          9.42625457	
          0.80585597	        -15.10616494	          1.06769534	          0.89978217	          9.59775756	         34.16436919	         -7.34165883	        -36.09304365	         11.31413025	         15.98880407	          9.38641066	
          0.81544950	        -15.10655094	          1.07973844	          0.89886582	          8.83963538	         35.07171954	         -7.42499278	        -34.50359111	         11.31218335	         16.19371811	          9.34981944	
          0.82504302	        -15.10840809	          1.09184354	          0.89789035	          8.09811752	         35.91442184	         -7.54299908	        -32.80522261	         11.30160989	         16.32682906	          9.31679185	
          0.83463654	        -15.11205894	          1.10401875	          0.89685460	          7.37286212	         36.68790609	         -7.69598108	        -31.00940278	         11.28323621	         16.39691664	          9.28771284	
          0.84423007	        -15.11757069	          1.11627605	          0.89576124	          6.66476916	         37.38548723	         -7.88761285	        -29.14233749	         11.25542992	         16.41212676	          9.26317004	
          0.85382359	        -15.12497056	          1.12863370	          0.89462268	          5.97585652	         37.99424436	         -8.12411426	        -27.23827113	         11.21214757	         16.37975296	          9.24446633	
          0.86341711	        -15.13428059	          1.14111320	          0.89346065	          5.30927976	         38.49840511	         -8.41260090	        -25.32938500	         11.14098097	         16.30619919	          9.23332262	
          0.87301064	        -15.14518215	          1.15373334	          0.89229766	          4.66945889	         38.88853625	         -8.76156284	        -23.44353515	         11.02564343	         16.19686051	          9.23092474	
          0.88260416	        -15.15688091	          1.16650869	          0.89115167	          4.06164910	         39.16449160	         -9.18083631	        -21.60255031	         10.84959485	         16.05586530	          9.23767863	
          0.89219768	        -15.16816559	          1.17945210	          0.89003696	          3.49113040	         39.33316213	         -9.68071982	        -19.82801808	         10.59855149	         15.88581399	          9.25351130	
          0.90179121	        -15.17781425	          1.19257744	          0.88896569	          2.96279596	         39.40177421	        -10.27091238	        -18.13479150	         10.25967421	         15.68790114	          9.27851221	
          0.91138473	        -15.18468207	          1.20589917	          0.88794705	          2.48107718	         39.37714795	        -10.95998116	        -16.53466101	          9.82081574	         15.46202461	          9.31292066	
